<mxfile host="app.diagrams.net" agent="Mozilla/5.0 (Macintosh; Intel Mac OS X 10_15_7) AppleWebKit/537.36 (KHTML, like Gecko) Chrome/123.0.0.0 Safari/537.36 OPR/109.0.0.0" version="24.7.8">
  <diagram id="C5RBs43oDa-KdzZeNtuy" name="Page-1">
    <mxGraphModel dx="3652" dy="5695" grid="1" gridSize="10" guides="1" tooltips="1" connect="1" arrows="1" fold="1" page="1" pageScale="1" pageWidth="827" pageHeight="1169" math="0" shadow="0">
      <root>
        <mxCell id="WIyWlLk6GJQsqaUBKTNV-0" />
        <mxCell id="WIyWlLk6GJQsqaUBKTNV-1" parent="WIyWlLk6GJQsqaUBKTNV-0" />
        <mxCell id="3fczbsxRmoHJEnEu84x_-69" value="choice == 1?" style="html=1;overflow=block;blockSpacing=1;whiteSpace=wrap;rhombus;fontSize=13;spacing=3.8;rounded=1;absoluteArcSize=1;arcSize=9;strokeWidth=NaN;lucidId=eRAhfTVhAbV-;" vertex="1" parent="WIyWlLk6GJQsqaUBKTNV-1">
          <mxGeometry x="431" y="-900" width="150" height="120" as="geometry" />
        </mxCell>
        <mxCell id="3fczbsxRmoHJEnEu84x_-70" value="Call insertContact()" style="html=1;overflow=block;blockSpacing=1;whiteSpace=wrap;fontSize=13;spacing=9;rounded=1;absoluteArcSize=1;arcSize=9;strokeWidth=NaN;lucidId=eRAhY9dSQfNk;" vertex="1" parent="WIyWlLk6GJQsqaUBKTNV-1">
          <mxGeometry x="760" y="-881" width="152" height="81" as="geometry" />
        </mxCell>
        <mxCell id="3fczbsxRmoHJEnEu84x_-71" value="choice == 2?" style="html=1;overflow=block;blockSpacing=1;whiteSpace=wrap;rhombus;fontSize=13;spacing=3.8;rounded=1;absoluteArcSize=1;arcSize=9;strokeWidth=NaN;lucidId=eRAhl8F1_OAq;" vertex="1" parent="WIyWlLk6GJQsqaUBKTNV-1">
          <mxGeometry x="431" y="-630" width="150" height="120" as="geometry" />
        </mxCell>
        <mxCell id="3fczbsxRmoHJEnEu84x_-73" value="choice == 3?" style="html=1;overflow=block;blockSpacing=1;whiteSpace=wrap;rhombus;fontSize=13;spacing=3.8;rounded=1;absoluteArcSize=1;arcSize=9;strokeWidth=NaN;lucidId=eRAh.yVIUzWg;" vertex="1" parent="WIyWlLk6GJQsqaUBKTNV-1">
          <mxGeometry x="431" y="-358" width="150" height="120" as="geometry" />
        </mxCell>
        <mxCell id="3fczbsxRmoHJEnEu84x_-75" value="choice == 4?" style="html=1;overflow=block;blockSpacing=1;whiteSpace=wrap;rhombus;fontSize=13;spacing=3.8;rounded=1;absoluteArcSize=1;arcSize=9;strokeWidth=NaN;lucidId=eRAhEPe~mVj_;" vertex="1" parent="WIyWlLk6GJQsqaUBKTNV-1">
          <mxGeometry x="431" y="-30" width="150" height="120" as="geometry" />
        </mxCell>
        <mxCell id="3fczbsxRmoHJEnEu84x_-77" value="choice == 5?" style="html=1;overflow=block;blockSpacing=1;whiteSpace=wrap;rhombus;fontSize=13;spacing=3.8;rounded=1;absoluteArcSize=1;arcSize=9;strokeWidth=NaN;lucidId=eRAhpsRm34mp;" vertex="1" parent="WIyWlLk6GJQsqaUBKTNV-1">
          <mxGeometry x="426" y="410.5" width="150" height="120" as="geometry" />
        </mxCell>
        <mxCell id="3fczbsxRmoHJEnEu84x_-79" value="choice == 6?" style="html=1;overflow=block;blockSpacing=1;whiteSpace=wrap;rhombus;fontSize=13;spacing=3.8;rounded=1;absoluteArcSize=1;arcSize=9;strokeWidth=NaN;lucidId=eRAhjaWhayal;" vertex="1" parent="WIyWlLk6GJQsqaUBKTNV-1">
          <mxGeometry x="426" y="681.5" width="150" height="120" as="geometry" />
        </mxCell>
        <mxCell id="3fczbsxRmoHJEnEu84x_-80" value="Call sortContacts()" style="html=1;overflow=block;blockSpacing=1;whiteSpace=wrap;fontSize=13;spacing=9;rounded=1;absoluteArcSize=1;arcSize=9;strokeWidth=NaN;lucidId=eRAhJVK5bnUw;" vertex="1" parent="WIyWlLk6GJQsqaUBKTNV-1">
          <mxGeometry x="777" y="970" width="152" height="122" as="geometry" />
        </mxCell>
        <mxCell id="3fczbsxRmoHJEnEu84x_-82" value="Check if choice != 0" style="html=1;overflow=block;blockSpacing=1;whiteSpace=wrap;fontSize=13;spacing=9;rounded=1;absoluteArcSize=1;arcSize=9;strokeWidth=NaN;lucidId=eRAhwOddQVvl;" vertex="1" parent="WIyWlLk6GJQsqaUBKTNV-1">
          <mxGeometry x="420" y="1180" width="152" height="122" as="geometry" />
        </mxCell>
        <mxCell id="3fczbsxRmoHJEnEu84x_-84" value="" style="html=1;jettySize=18;whiteSpace=wrap;fontSize=13;strokeColor=#3a414a;strokeOpacity=100;strokeWidth=0.8;rounded=1;arcSize=12;edgeStyle=orthogonalEdgeStyle;startArrow=none;endArrow=block;endFill=1;exitX=0.5;exitY=1;entryX=0.5;entryY=-0.006;entryPerimeter=0;lucidId=eRAhOswdQQ2I;exitDx=0;exitDy=0;" edge="1" parent="WIyWlLk6GJQsqaUBKTNV-1" source="3fczbsxRmoHJEnEu84x_-224" target="3fczbsxRmoHJEnEu84x_-123">
          <mxGeometry width="100" height="100" relative="1" as="geometry">
            <Array as="points" />
            <mxPoint x="506" y="-3219.2200000000003" as="sourcePoint" />
          </mxGeometry>
        </mxCell>
        <mxCell id="3fczbsxRmoHJEnEu84x_-85" value="" style="html=1;jettySize=18;whiteSpace=wrap;fontSize=13;strokeColor=#3a414a;strokeOpacity=100;strokeWidth=0.8;rounded=1;arcSize=12;edgeStyle=orthogonalEdgeStyle;startArrow=none;endArrow=block;endFill=1;exitX=0.5;exitY=1.006;exitPerimeter=0;entryX=0.5;entryY=-0.006;entryPerimeter=0;lucidId=eRAhconMGw0B;" edge="1" parent="WIyWlLk6GJQsqaUBKTNV-1" source="3fczbsxRmoHJEnEu84x_-123" target="3fczbsxRmoHJEnEu84x_-122">
          <mxGeometry width="100" height="100" relative="1" as="geometry">
            <Array as="points" />
          </mxGeometry>
        </mxCell>
        <mxCell id="3fczbsxRmoHJEnEu84x_-86" value="" style="html=1;jettySize=18;whiteSpace=wrap;fontSize=13;strokeColor=#3a414a;strokeOpacity=100;strokeWidth=0.8;rounded=1;arcSize=12;edgeStyle=orthogonalEdgeStyle;startArrow=none;endArrow=block;endFill=1;exitX=0.5;exitY=1.006;exitPerimeter=0;entryX=0.5;entryY=-0.006;entryPerimeter=0;lucidId=eRAhRM7OWJG-;" edge="1" parent="WIyWlLk6GJQsqaUBKTNV-1" source="3fczbsxRmoHJEnEu84x_-122" target="3fczbsxRmoHJEnEu84x_-124">
          <mxGeometry width="100" height="100" relative="1" as="geometry">
            <Array as="points" />
          </mxGeometry>
        </mxCell>
        <mxCell id="3fczbsxRmoHJEnEu84x_-87" value="" style="html=1;jettySize=18;whiteSpace=wrap;fontSize=13;strokeColor=#3a414a;strokeOpacity=100;strokeWidth=0.8;rounded=1;arcSize=12;edgeStyle=orthogonalEdgeStyle;startArrow=none;endArrow=block;endFill=1;exitX=0.5;exitY=1.006;exitPerimeter=0;entryX=0.5;entryY=-0.006;entryPerimeter=0;lucidId=eRAhB8.0pfbZ;" edge="1" parent="WIyWlLk6GJQsqaUBKTNV-1" source="3fczbsxRmoHJEnEu84x_-124" target="3fczbsxRmoHJEnEu84x_-125">
          <mxGeometry width="100" height="100" relative="1" as="geometry">
            <Array as="points" />
          </mxGeometry>
        </mxCell>
        <mxCell id="3fczbsxRmoHJEnEu84x_-88" value="" style="html=1;jettySize=18;whiteSpace=wrap;fontSize=13;strokeColor=#3a414a;strokeOpacity=100;strokeWidth=0.8;rounded=1;arcSize=12;edgeStyle=orthogonalEdgeStyle;startArrow=none;endArrow=block;endFill=1;exitX=0.5;exitY=1.006;exitPerimeter=0;entryX=0.5;entryY=-0.006;entryPerimeter=0;lucidId=eRAh2sHBEHU-;" edge="1" parent="WIyWlLk6GJQsqaUBKTNV-1" source="3fczbsxRmoHJEnEu84x_-125" target="3fczbsxRmoHJEnEu84x_-126">
          <mxGeometry width="100" height="100" relative="1" as="geometry">
            <Array as="points" />
          </mxGeometry>
        </mxCell>
        <mxCell id="3fczbsxRmoHJEnEu84x_-89" value="" style="html=1;jettySize=18;whiteSpace=wrap;fontSize=13;strokeColor=#3a414a;strokeOpacity=100;strokeWidth=0.8;rounded=1;arcSize=12;edgeStyle=orthogonalEdgeStyle;startArrow=none;endArrow=block;endFill=1;exitX=0.5;exitY=1.006;exitPerimeter=0;entryX=0.5;entryY=-0.006;entryPerimeter=0;lucidId=eRAhUA6~JRff;" edge="1" parent="WIyWlLk6GJQsqaUBKTNV-1" source="3fczbsxRmoHJEnEu84x_-126" target="3fczbsxRmoHJEnEu84x_-127">
          <mxGeometry width="100" height="100" relative="1" as="geometry">
            <Array as="points" />
          </mxGeometry>
        </mxCell>
        <mxCell id="3fczbsxRmoHJEnEu84x_-90" value="" style="html=1;jettySize=18;whiteSpace=wrap;fontSize=13;strokeColor=#3a414a;strokeOpacity=100;strokeWidth=0.8;rounded=1;arcSize=12;edgeStyle=orthogonalEdgeStyle;startArrow=none;endArrow=block;endFill=1;exitX=0.5;exitY=1.006;exitPerimeter=0;entryX=0.5;entryY=-0.006;entryPerimeter=0;lucidId=eRAhCxonKFcM;" edge="1" parent="WIyWlLk6GJQsqaUBKTNV-1" source="3fczbsxRmoHJEnEu84x_-127" target="3fczbsxRmoHJEnEu84x_-128">
          <mxGeometry width="100" height="100" relative="1" as="geometry">
            <Array as="points" />
          </mxGeometry>
        </mxCell>
        <mxCell id="3fczbsxRmoHJEnEu84x_-91" value="" style="html=1;jettySize=18;whiteSpace=wrap;fontSize=13;strokeColor=#3a414a;strokeOpacity=100;strokeWidth=0.8;rounded=1;arcSize=12;edgeStyle=orthogonalEdgeStyle;startArrow=none;endArrow=block;endFill=1;exitX=0.5;exitY=1.006;exitPerimeter=0;entryX=0.5;entryY=-0.006;entryPerimeter=0;lucidId=eRAhSfkxj.Zd;" edge="1" parent="WIyWlLk6GJQsqaUBKTNV-1" source="3fczbsxRmoHJEnEu84x_-128" target="3fczbsxRmoHJEnEu84x_-129">
          <mxGeometry width="100" height="100" relative="1" as="geometry">
            <Array as="points" />
          </mxGeometry>
        </mxCell>
        <mxCell id="3fczbsxRmoHJEnEu84x_-92" value="" style="html=1;jettySize=18;whiteSpace=wrap;fontSize=13;strokeColor=#3a414a;strokeOpacity=100;strokeWidth=0.8;rounded=1;arcSize=12;edgeStyle=orthogonalEdgeStyle;startArrow=none;endArrow=block;endFill=1;exitX=0.5;exitY=1.006;exitPerimeter=0;entryX=0.5;entryY=0.007;entryPerimeter=0;lucidId=eRAhhsachsZ0;" edge="1" parent="WIyWlLk6GJQsqaUBKTNV-1" source="3fczbsxRmoHJEnEu84x_-129" target="3fczbsxRmoHJEnEu84x_-69">
          <mxGeometry width="100" height="100" relative="1" as="geometry">
            <Array as="points" />
          </mxGeometry>
        </mxCell>
        <mxCell id="3fczbsxRmoHJEnEu84x_-93" value="" style="html=1;jettySize=18;whiteSpace=wrap;fontSize=13;strokeColor=#008a0e;strokeOpacity=100;strokeWidth=0.8;rounded=1;arcSize=12;edgeStyle=orthogonalEdgeStyle;startArrow=none;endArrow=block;endFill=1;exitX=0.991;exitY=0.5;exitPerimeter=0;entryX=-0.005;entryY=0.5;entryPerimeter=0;lucidId=eRAhxMXmPTiH;" edge="1" parent="WIyWlLk6GJQsqaUBKTNV-1" source="3fczbsxRmoHJEnEu84x_-69" target="3fczbsxRmoHJEnEu84x_-70">
          <mxGeometry width="100" height="100" relative="1" as="geometry">
            <Array as="points" />
          </mxGeometry>
        </mxCell>
        <mxCell id="3fczbsxRmoHJEnEu84x_-94" value="Yes" style="text;html=1;resizable=0;labelBackgroundColor=default;align=center;verticalAlign=middle;fontColor=#3a414a;fontSize=13;" vertex="1" parent="3fczbsxRmoHJEnEu84x_-93">
          <mxGeometry relative="1" as="geometry" />
        </mxCell>
        <mxCell id="3fczbsxRmoHJEnEu84x_-95" value="" style="html=1;jettySize=18;whiteSpace=wrap;fontSize=13;strokeColor=#e81313;strokeOpacity=100;dashed=1;fixDash=1;strokeWidth=0.8;rounded=1;arcSize=12;edgeStyle=orthogonalEdgeStyle;startArrow=none;endArrow=block;endFill=1;exitX=0.5;exitY=0.993;exitPerimeter=0;entryX=0.5;entryY=0.007;entryPerimeter=0;lucidId=eRAhMRDnoaN7;" edge="1" parent="WIyWlLk6GJQsqaUBKTNV-1" source="3fczbsxRmoHJEnEu84x_-69" target="3fczbsxRmoHJEnEu84x_-71">
          <mxGeometry width="100" height="100" relative="1" as="geometry">
            <Array as="points" />
          </mxGeometry>
        </mxCell>
        <mxCell id="3fczbsxRmoHJEnEu84x_-96" value="No" style="text;html=1;resizable=0;labelBackgroundColor=default;align=center;verticalAlign=middle;fontColor=#3a414a;fontSize=13;" vertex="1" parent="3fczbsxRmoHJEnEu84x_-95">
          <mxGeometry relative="1" as="geometry" />
        </mxCell>
        <mxCell id="3fczbsxRmoHJEnEu84x_-97" value="" style="html=1;jettySize=18;whiteSpace=wrap;fontSize=13;strokeColor=#008a0e;strokeOpacity=100;strokeWidth=0.8;rounded=1;arcSize=12;edgeStyle=orthogonalEdgeStyle;startArrow=none;endArrow=block;endFill=1;exitX=0.991;exitY=0.5;exitPerimeter=0;lucidId=eRAhjgdg4Sg9;entryX=0;entryY=0.5;entryDx=0;entryDy=0;" edge="1" parent="WIyWlLk6GJQsqaUBKTNV-1" source="3fczbsxRmoHJEnEu84x_-71" target="3fczbsxRmoHJEnEu84x_-139">
          <mxGeometry width="100" height="100" relative="1" as="geometry">
            <Array as="points" />
            <mxPoint x="735" y="-570" as="targetPoint" />
          </mxGeometry>
        </mxCell>
        <mxCell id="3fczbsxRmoHJEnEu84x_-98" value="Yes" style="text;html=1;resizable=0;labelBackgroundColor=default;align=center;verticalAlign=middle;fontColor=#3a414a;fontSize=13;" vertex="1" parent="3fczbsxRmoHJEnEu84x_-97">
          <mxGeometry relative="1" as="geometry" />
        </mxCell>
        <mxCell id="3fczbsxRmoHJEnEu84x_-99" value="" style="html=1;jettySize=18;whiteSpace=wrap;fontSize=13;strokeColor=#e81313;strokeOpacity=100;dashed=1;fixDash=1;strokeWidth=0.8;rounded=1;arcSize=12;edgeStyle=orthogonalEdgeStyle;startArrow=none;endArrow=block;endFill=1;exitX=0.5;exitY=0.993;exitPerimeter=0;entryX=0.5;entryY=0.007;entryPerimeter=0;lucidId=eRAhq2rj_irK;" edge="1" parent="WIyWlLk6GJQsqaUBKTNV-1" source="3fczbsxRmoHJEnEu84x_-71" target="3fczbsxRmoHJEnEu84x_-73">
          <mxGeometry width="100" height="100" relative="1" as="geometry">
            <Array as="points" />
          </mxGeometry>
        </mxCell>
        <mxCell id="3fczbsxRmoHJEnEu84x_-100" value="No" style="text;html=1;resizable=0;labelBackgroundColor=default;align=center;verticalAlign=middle;fontColor=#3a414a;fontSize=13;" vertex="1" parent="3fczbsxRmoHJEnEu84x_-99">
          <mxGeometry relative="1" as="geometry" />
        </mxCell>
        <mxCell id="3fczbsxRmoHJEnEu84x_-103" value="" style="html=1;jettySize=18;whiteSpace=wrap;fontSize=13;strokeColor=#e81313;strokeOpacity=100;dashed=1;fixDash=1;strokeWidth=0.8;rounded=1;arcSize=12;edgeStyle=orthogonalEdgeStyle;startArrow=none;endArrow=block;endFill=1;exitX=0.5;exitY=0.993;exitPerimeter=0;entryX=0.5;entryY=0.007;entryPerimeter=0;lucidId=eRAhcoWT~uNA;" edge="1" parent="WIyWlLk6GJQsqaUBKTNV-1" source="3fczbsxRmoHJEnEu84x_-73" target="3fczbsxRmoHJEnEu84x_-75">
          <mxGeometry width="100" height="100" relative="1" as="geometry">
            <Array as="points" />
          </mxGeometry>
        </mxCell>
        <mxCell id="3fczbsxRmoHJEnEu84x_-104" value="No" style="text;html=1;resizable=0;labelBackgroundColor=default;align=center;verticalAlign=middle;fontColor=#3a414a;fontSize=13;" vertex="1" parent="3fczbsxRmoHJEnEu84x_-103">
          <mxGeometry relative="1" as="geometry" />
        </mxCell>
        <mxCell id="3fczbsxRmoHJEnEu84x_-105" value="" style="html=1;jettySize=18;whiteSpace=wrap;fontSize=13;strokeColor=#008a0e;strokeOpacity=100;strokeWidth=0.8;rounded=1;arcSize=12;edgeStyle=orthogonalEdgeStyle;startArrow=none;endArrow=block;endFill=1;exitX=0.991;exitY=0.5;exitPerimeter=0;lucidId=eRAhlB0MjHuO;entryX=0;entryY=0.5;entryDx=0;entryDy=0;" edge="1" parent="WIyWlLk6GJQsqaUBKTNV-1" source="3fczbsxRmoHJEnEu84x_-75" target="3fczbsxRmoHJEnEu84x_-143">
          <mxGeometry width="100" height="100" relative="1" as="geometry">
            <Array as="points" />
            <mxPoint x="725" y="30" as="targetPoint" />
          </mxGeometry>
        </mxCell>
        <mxCell id="3fczbsxRmoHJEnEu84x_-106" value="Yes" style="text;html=1;resizable=0;labelBackgroundColor=default;align=center;verticalAlign=middle;fontColor=#3a414a;fontSize=13;" vertex="1" parent="3fczbsxRmoHJEnEu84x_-105">
          <mxGeometry relative="1" as="geometry" />
        </mxCell>
        <mxCell id="3fczbsxRmoHJEnEu84x_-107" value="" style="html=1;jettySize=18;whiteSpace=wrap;fontSize=13;strokeColor=#e81313;strokeOpacity=100;dashed=1;fixDash=1;strokeWidth=0.8;rounded=1;arcSize=12;edgeStyle=orthogonalEdgeStyle;startArrow=none;endArrow=block;endFill=1;exitX=0.5;exitY=0.993;exitPerimeter=0;entryX=0.5;entryY=0.007;entryPerimeter=0;lucidId=eRAhUnxfrra-;" edge="1" parent="WIyWlLk6GJQsqaUBKTNV-1" source="3fczbsxRmoHJEnEu84x_-75" target="3fczbsxRmoHJEnEu84x_-77">
          <mxGeometry width="100" height="100" relative="1" as="geometry">
            <Array as="points" />
          </mxGeometry>
        </mxCell>
        <mxCell id="3fczbsxRmoHJEnEu84x_-108" value="No" style="text;html=1;resizable=0;labelBackgroundColor=default;align=center;verticalAlign=middle;fontColor=#3a414a;fontSize=13;" vertex="1" parent="3fczbsxRmoHJEnEu84x_-107">
          <mxGeometry relative="1" as="geometry" />
        </mxCell>
        <mxCell id="3fczbsxRmoHJEnEu84x_-109" value="" style="html=1;jettySize=18;whiteSpace=wrap;fontSize=13;strokeColor=#008a0e;strokeOpacity=100;strokeWidth=0.8;rounded=1;arcSize=12;edgeStyle=orthogonalEdgeStyle;startArrow=none;endArrow=block;endFill=1;exitX=0.991;exitY=0.5;exitPerimeter=0;lucidId=eRAhgrudIFUt;entryX=0;entryY=0.5;entryDx=0;entryDy=0;" edge="1" parent="WIyWlLk6GJQsqaUBKTNV-1" source="3fczbsxRmoHJEnEu84x_-77" target="3fczbsxRmoHJEnEu84x_-144">
          <mxGeometry width="100" height="100" relative="1" as="geometry">
            <Array as="points" />
            <mxPoint x="710" y="470.5" as="targetPoint" />
          </mxGeometry>
        </mxCell>
        <mxCell id="3fczbsxRmoHJEnEu84x_-110" value="Yes" style="text;html=1;resizable=0;labelBackgroundColor=default;align=center;verticalAlign=middle;fontColor=#3a414a;fontSize=13;" vertex="1" parent="3fczbsxRmoHJEnEu84x_-109">
          <mxGeometry relative="1" as="geometry" />
        </mxCell>
        <mxCell id="3fczbsxRmoHJEnEu84x_-111" value="" style="html=1;jettySize=18;whiteSpace=wrap;fontSize=13;strokeColor=#e81313;strokeOpacity=100;dashed=1;fixDash=1;strokeWidth=0.8;rounded=1;arcSize=12;edgeStyle=orthogonalEdgeStyle;startArrow=none;endArrow=block;endFill=1;exitX=0.5;exitY=0.993;exitPerimeter=0;entryX=0.5;entryY=0.007;entryPerimeter=0;lucidId=eRAhIJ2NQqOq;" edge="1" parent="WIyWlLk6GJQsqaUBKTNV-1" source="3fczbsxRmoHJEnEu84x_-77" target="3fczbsxRmoHJEnEu84x_-79">
          <mxGeometry width="100" height="100" relative="1" as="geometry">
            <Array as="points" />
          </mxGeometry>
        </mxCell>
        <mxCell id="3fczbsxRmoHJEnEu84x_-112" value="No" style="text;html=1;resizable=0;labelBackgroundColor=default;align=center;verticalAlign=middle;fontColor=#3a414a;fontSize=13;" vertex="1" parent="3fczbsxRmoHJEnEu84x_-111">
          <mxGeometry relative="1" as="geometry" />
        </mxCell>
        <mxCell id="3fczbsxRmoHJEnEu84x_-118" value="" style="html=1;jettySize=18;whiteSpace=wrap;fontSize=13;strokeColor=#3a414a;strokeOpacity=100;strokeWidth=0.8;rounded=1;arcSize=12;startArrow=none;endArrow=block;endFill=1;exitX=0.5;exitY=1.006;exitPerimeter=0;lucidId=eRAhbJlBrYZg;elbow=vertical;entryX=1;entryY=0.5;entryDx=0;entryDy=0;" edge="1" parent="WIyWlLk6GJQsqaUBKTNV-1" source="3fczbsxRmoHJEnEu84x_-80" target="3fczbsxRmoHJEnEu84x_-82">
          <mxGeometry width="100" height="100" relative="1" as="geometry">
            <Array as="points">
              <mxPoint x="853" y="1241" />
            </Array>
            <mxPoint x="665" y="1290" as="targetPoint" />
          </mxGeometry>
        </mxCell>
        <mxCell id="3fczbsxRmoHJEnEu84x_-119" value="" style="html=1;jettySize=18;whiteSpace=wrap;fontSize=13;strokeColor=#e81313;strokeOpacity=100;dashed=1;fixDash=1;strokeWidth=0.8;rounded=1;arcSize=12;edgeStyle=orthogonalEdgeStyle;startArrow=none;endArrow=block;endFill=1;exitX=0.5;exitY=1.006;exitPerimeter=0;entryX=0.5;entryY=0;lucidId=eRAhp.dH~-mH;entryDx=0;entryDy=0;" edge="1" parent="WIyWlLk6GJQsqaUBKTNV-1" source="3fczbsxRmoHJEnEu84x_-82" target="3fczbsxRmoHJEnEu84x_-225">
          <mxGeometry width="100" height="100" relative="1" as="geometry">
            <Array as="points" />
            <mxPoint x="496.5" y="1639.2799999999997" as="targetPoint" />
          </mxGeometry>
        </mxCell>
        <mxCell id="3fczbsxRmoHJEnEu84x_-120" value="No" style="text;html=1;resizable=0;labelBackgroundColor=default;align=center;verticalAlign=middle;fontColor=#3a414a;fontSize=13;" vertex="1" parent="3fczbsxRmoHJEnEu84x_-119">
          <mxGeometry relative="1" as="geometry" />
        </mxCell>
        <mxCell id="3fczbsxRmoHJEnEu84x_-121" value="" style="html=1;jettySize=18;whiteSpace=wrap;fontSize=13;strokeColor=#3a414a;strokeOpacity=100;strokeWidth=0.8;rounded=1;arcSize=12;edgeStyle=orthogonalEdgeStyle;startArrow=none;endArrow=block;endFill=1;exitX=1.005;exitY=0.5;exitPerimeter=0;entryX=0.102;entryY=0.5;entryPerimeter=0;lucidId=KXAh2Hc~4Bh_;" edge="1" parent="WIyWlLk6GJQsqaUBKTNV-1" source="3fczbsxRmoHJEnEu84x_-70" target="3fczbsxRmoHJEnEu84x_-130">
          <mxGeometry width="100" height="100" relative="1" as="geometry">
            <Array as="points" />
          </mxGeometry>
        </mxCell>
        <mxCell id="3fczbsxRmoHJEnEu84x_-122" value="Get name" style="html=1;overflow=block;blockSpacing=1;whiteSpace=wrap;shape=parallelogram;perimeter=parallelogramPerimeter;anchorPointDirection=0;fontSize=16.7;spacing=3.8;rounded=1;absoluteArcSize=1;arcSize=9;strokeWidth=NaN;lucidId=LABhZtsdDN4B;" vertex="1" parent="WIyWlLk6GJQsqaUBKTNV-1">
          <mxGeometry x="443.5" y="-2798" width="127" height="108" as="geometry" />
        </mxCell>
        <mxCell id="3fczbsxRmoHJEnEu84x_-123" value="Prompt user for name" style="html=1;overflow=block;blockSpacing=1;whiteSpace=wrap;shape=parallelogram;perimeter=parallelogramPerimeter;anchorPointDirection=0;fontSize=16.7;spacing=3.8;rounded=1;absoluteArcSize=1;arcSize=9;strokeWidth=NaN;lucidId=_NBhN2U6RZ7P;" vertex="1" parent="WIyWlLk6GJQsqaUBKTNV-1">
          <mxGeometry x="439.5" y="-3060" width="135" height="112" as="geometry" />
        </mxCell>
        <mxCell id="3fczbsxRmoHJEnEu84x_-124" value="Prompt user for phone number" style="html=1;overflow=block;blockSpacing=1;whiteSpace=wrap;shape=parallelogram;perimeter=parallelogramPerimeter;anchorPointDirection=0;fontSize=16.7;spacing=3.8;rounded=1;absoluteArcSize=1;arcSize=9;strokeWidth=NaN;lucidId=xOBh~9aqNc52;" vertex="1" parent="WIyWlLk6GJQsqaUBKTNV-1">
          <mxGeometry x="442" y="-2530" width="130" height="110" as="geometry" />
        </mxCell>
        <mxCell id="3fczbsxRmoHJEnEu84x_-125" value="&lt;font style=&quot;font-size: 18px;&quot;&gt;Get phone number&lt;/font&gt;" style="html=1;overflow=block;blockSpacing=1;whiteSpace=wrap;shape=parallelogram;perimeter=parallelogramPerimeter;anchorPointDirection=0;fontSize=16.7;spacing=3.8;rounded=1;absoluteArcSize=1;arcSize=9;strokeWidth=NaN;lucidId=GQBhHV7PfRfE;" vertex="1" parent="WIyWlLk6GJQsqaUBKTNV-1">
          <mxGeometry x="438.5" y="-2240" width="135" height="107" as="geometry" />
        </mxCell>
        <mxCell id="3fczbsxRmoHJEnEu84x_-126" value="Display &#39;Name:&#39; +name+ &#39;,Phone Number:&#39; +phone number" style="html=1;overflow=block;blockSpacing=1;whiteSpace=wrap;shape=parallelogram;perimeter=parallelogramPerimeter;anchorPointDirection=0;fontSize=13;spacing=3.8;rounded=1;absoluteArcSize=1;arcSize=0;strokeWidth=NaN;lucidId=cRBhm4mIYEbE;" vertex="1" parent="WIyWlLk6GJQsqaUBKTNV-1">
          <mxGeometry x="436.5" y="-1980" width="137" height="118" as="geometry" />
        </mxCell>
        <mxCell id="3fczbsxRmoHJEnEu84x_-127" value="Display &quot;PhoneBook Application&quot;" style="html=1;overflow=block;blockSpacing=1;whiteSpace=wrap;shape=parallelogram;perimeter=parallelogramPerimeter;anchorPointDirection=0;fontSize=13;spacing=3.8;rounded=1;absoluteArcSize=1;arcSize=9;strokeWidth=NaN;lucidId=TRBhgVVi.9eU;" vertex="1" parent="WIyWlLk6GJQsqaUBKTNV-1">
          <mxGeometry x="437.5" y="-1717" width="137" height="107" as="geometry" />
        </mxCell>
        <mxCell id="3fczbsxRmoHJEnEu84x_-128" value="Display menu options" style="html=1;overflow=block;blockSpacing=1;whiteSpace=wrap;shape=parallelogram;perimeter=parallelogramPerimeter;anchorPointDirection=0;fontSize=13;spacing=3.8;rounded=1;absoluteArcSize=1;arcSize=9;strokeWidth=NaN;lucidId=6RBhGlp7gwiF;" vertex="1" parent="WIyWlLk6GJQsqaUBKTNV-1">
          <mxGeometry x="443.5" y="-1449" width="127" height="109" as="geometry" />
        </mxCell>
        <mxCell id="3fczbsxRmoHJEnEu84x_-129" value="Input choice" style="html=1;overflow=block;blockSpacing=1;whiteSpace=wrap;shape=parallelogram;perimeter=parallelogramPerimeter;anchorPointDirection=0;fontSize=13;spacing=3.8;rounded=1;absoluteArcSize=1;arcSize=9;strokeWidth=NaN;lucidId=NTBh9xElIymQ;" vertex="1" parent="WIyWlLk6GJQsqaUBKTNV-1">
          <mxGeometry x="437.5" y="-1175" width="137" height="115" as="geometry" />
        </mxCell>
        <mxCell id="3fczbsxRmoHJEnEu84x_-130" value="Enter name" style="html=1;overflow=block;blockSpacing=1;whiteSpace=wrap;shape=parallelogram;perimeter=parallelogramPerimeter;anchorPointDirection=0;fontSize=16.7;spacing=3.8;rounded=1;absoluteArcSize=1;arcSize=9;strokeWidth=NaN;lucidId=1UBheFtj..Al;" vertex="1" parent="WIyWlLk6GJQsqaUBKTNV-1">
          <mxGeometry x="1015" y="-891.5" width="130" height="101" as="geometry" />
        </mxCell>
        <mxCell id="3fczbsxRmoHJEnEu84x_-131" value="" style="html=1;jettySize=18;whiteSpace=wrap;fontSize=13;strokeColor=#3a414a;strokeOpacity=100;strokeWidth=0.8;rounded=1;arcSize=12;edgeStyle=orthogonalEdgeStyle;startArrow=none;endArrow=block;endFill=1;exitX=0.898;exitY=0.5;exitPerimeter=0;entryX=0.102;entryY=0.5;entryPerimeter=0;lucidId=sVBh4d-j__hQ;" edge="1" parent="WIyWlLk6GJQsqaUBKTNV-1" source="3fczbsxRmoHJEnEu84x_-130" target="3fczbsxRmoHJEnEu84x_-132">
          <mxGeometry width="100" height="100" relative="1" as="geometry">
            <Array as="points" />
          </mxGeometry>
        </mxCell>
        <mxCell id="3fczbsxRmoHJEnEu84x_-132" value="Enter phone number" style="html=1;overflow=block;blockSpacing=1;whiteSpace=wrap;shape=parallelogram;perimeter=parallelogramPerimeter;anchorPointDirection=0;fontSize=16.7;spacing=3.8;rounded=1;absoluteArcSize=1;arcSize=9;strokeWidth=NaN;lucidId=sVBh6.mMNMvk;" vertex="1" parent="WIyWlLk6GJQsqaUBKTNV-1">
          <mxGeometry x="1235" y="-891.5" width="125" height="101" as="geometry" />
        </mxCell>
        <mxCell id="3fczbsxRmoHJEnEu84x_-133" value="Create new contact" style="html=1;overflow=block;blockSpacing=1;whiteSpace=wrap;fontSize=13;spacing=9;rounded=1;absoluteArcSize=1;arcSize=9;strokeWidth=NaN;lucidId=BWBh74a_5Ecy;" vertex="1" parent="WIyWlLk6GJQsqaUBKTNV-1">
          <mxGeometry x="1475" y="-881.5" width="152" height="81" as="geometry" />
        </mxCell>
        <mxCell id="3fczbsxRmoHJEnEu84x_-134" value="" style="html=1;jettySize=18;whiteSpace=wrap;fontSize=13;strokeOpacity=100;strokeWidth=0.8;rounded=1;arcSize=12;edgeStyle=orthogonalEdgeStyle;startArrow=none;endArrow=block;endFill=1;exitX=0.898;exitY=0.5;exitPerimeter=0;entryX=-0.005;entryY=0.5;entryPerimeter=0;lucidId=UWBhq2eKNjBZ;" edge="1" parent="WIyWlLk6GJQsqaUBKTNV-1" source="3fczbsxRmoHJEnEu84x_-132" target="3fczbsxRmoHJEnEu84x_-133">
          <mxGeometry width="100" height="100" relative="1" as="geometry">
            <Array as="points" />
          </mxGeometry>
        </mxCell>
        <mxCell id="3fczbsxRmoHJEnEu84x_-135" value="Add new contact to phone book" style="html=1;overflow=block;blockSpacing=1;whiteSpace=wrap;fontSize=13;spacing=9;rounded=1;absoluteArcSize=1;arcSize=9;strokeWidth=NaN;lucidId=aYBh92vHMkYU;" vertex="1" parent="WIyWlLk6GJQsqaUBKTNV-1">
          <mxGeometry x="1745" y="-880.5" width="152" height="81" as="geometry" />
        </mxCell>
        <mxCell id="3fczbsxRmoHJEnEu84x_-136" value="" style="html=1;jettySize=18;whiteSpace=wrap;fontSize=13;strokeOpacity=100;strokeWidth=0.8;rounded=1;arcSize=12;edgeStyle=orthogonalEdgeStyle;startArrow=none;endArrow=block;endFill=1;exitX=1;exitY=0.5;lucidId=UWBhq2eKNjBZ;entryX=0;entryY=0.5;entryDx=0;entryDy=0;exitDx=0;exitDy=0;" edge="1" parent="WIyWlLk6GJQsqaUBKTNV-1" source="3fczbsxRmoHJEnEu84x_-133" target="3fczbsxRmoHJEnEu84x_-135">
          <mxGeometry width="100" height="100" relative="1" as="geometry">
            <Array as="points" />
            <mxPoint x="1767" y="-840.48" as="sourcePoint" />
            <mxPoint x="1887" y="-840.48" as="targetPoint" />
          </mxGeometry>
        </mxCell>
        <mxCell id="3fczbsxRmoHJEnEu84x_-137" value="Display &quot;Contact added&quot;" style="html=1;overflow=block;blockSpacing=1;whiteSpace=wrap;shape=parallelogram;perimeter=parallelogramPerimeter;anchorPointDirection=0;fontSize=13;spacing=3.8;rounded=1;absoluteArcSize=1;arcSize=9;strokeWidth=NaN;lucidId=6RBhGlp7gwiF;" vertex="1" parent="WIyWlLk6GJQsqaUBKTNV-1">
          <mxGeometry x="1995" y="-885.25" width="112" height="90.5" as="geometry" />
        </mxCell>
        <mxCell id="3fczbsxRmoHJEnEu84x_-138" value="" style="html=1;jettySize=18;whiteSpace=wrap;fontSize=13;strokeOpacity=100;strokeWidth=0.8;rounded=1;arcSize=12;edgeStyle=orthogonalEdgeStyle;startArrow=none;endArrow=block;endFill=1;lucidId=UWBhq2eKNjBZ;entryX=0;entryY=0.5;entryDx=0;entryDy=0;exitX=1;exitY=0.5;exitDx=0;exitDy=0;" edge="1" parent="WIyWlLk6GJQsqaUBKTNV-1" source="3fczbsxRmoHJEnEu84x_-135" target="3fczbsxRmoHJEnEu84x_-137">
          <mxGeometry width="100" height="100" relative="1" as="geometry">
            <Array as="points" />
            <mxPoint x="1955" y="-870" as="sourcePoint" />
            <mxPoint x="2015" y="-849" as="targetPoint" />
          </mxGeometry>
        </mxCell>
        <mxCell id="3fczbsxRmoHJEnEu84x_-139" value="Call searchContact()" style="html=1;overflow=block;blockSpacing=1;whiteSpace=wrap;fontSize=13;spacing=9;rounded=1;absoluteArcSize=1;arcSize=9;strokeWidth=NaN;lucidId=eRAhY9dSQfNk;" vertex="1" parent="WIyWlLk6GJQsqaUBKTNV-1">
          <mxGeometry x="755" y="-610.5" width="152" height="81" as="geometry" />
        </mxCell>
        <mxCell id="3fczbsxRmoHJEnEu84x_-141" value="" style="html=1;jettySize=18;whiteSpace=wrap;fontSize=13;strokeColor=#008a0e;strokeOpacity=100;strokeWidth=0.8;rounded=1;arcSize=12;edgeStyle=orthogonalEdgeStyle;startArrow=none;endArrow=block;endFill=1;exitX=0.991;exitY=0.5;exitPerimeter=0;entryX=0;entryY=0.5;lucidId=eRAhu2S5q5NP;entryDx=0;entryDy=0;" edge="1" parent="WIyWlLk6GJQsqaUBKTNV-1" source="3fczbsxRmoHJEnEu84x_-73" target="3fczbsxRmoHJEnEu84x_-140">
          <mxGeometry width="100" height="100" relative="1" as="geometry">
            <Array as="points" />
            <mxPoint x="580" y="-298" as="sourcePoint" />
            <mxPoint x="1260" y="-88" as="targetPoint" />
          </mxGeometry>
        </mxCell>
        <mxCell id="3fczbsxRmoHJEnEu84x_-142" value="Yes" style="text;html=1;resizable=0;labelBackgroundColor=default;align=center;verticalAlign=middle;fontColor=#3a414a;fontSize=13;" vertex="1" parent="3fczbsxRmoHJEnEu84x_-141">
          <mxGeometry relative="1" as="geometry" />
        </mxCell>
        <mxCell id="3fczbsxRmoHJEnEu84x_-140" value="Call displayAllContacts()" style="html=1;overflow=block;blockSpacing=1;whiteSpace=wrap;fontSize=13;spacing=9;rounded=1;absoluteArcSize=1;arcSize=9;strokeWidth=NaN;lucidId=eRAhY9dSQfNk;" vertex="1" parent="WIyWlLk6GJQsqaUBKTNV-1">
          <mxGeometry x="760" y="-338.5" width="152" height="81" as="geometry" />
        </mxCell>
        <mxCell id="3fczbsxRmoHJEnEu84x_-143" value="Call deleteContact()" style="html=1;overflow=block;blockSpacing=1;whiteSpace=wrap;fontSize=13;spacing=9;rounded=1;absoluteArcSize=1;arcSize=9;strokeWidth=NaN;lucidId=eRAhY9dSQfNk;" vertex="1" parent="WIyWlLk6GJQsqaUBKTNV-1">
          <mxGeometry x="760" y="-10.5" width="152" height="81" as="geometry" />
        </mxCell>
        <mxCell id="3fczbsxRmoHJEnEu84x_-144" value="Call updateContact()" style="html=1;overflow=block;blockSpacing=1;whiteSpace=wrap;fontSize=13;spacing=9;rounded=1;absoluteArcSize=1;arcSize=9;strokeWidth=NaN;lucidId=eRAhY9dSQfNk;" vertex="1" parent="WIyWlLk6GJQsqaUBKTNV-1">
          <mxGeometry x="755" y="430" width="152" height="81" as="geometry" />
        </mxCell>
        <mxCell id="3fczbsxRmoHJEnEu84x_-145" value="" style="html=1;jettySize=18;whiteSpace=wrap;fontSize=13;strokeColor=#3a414a;strokeOpacity=100;strokeWidth=0.8;rounded=1;arcSize=12;edgeStyle=orthogonalEdgeStyle;startArrow=none;endArrow=block;endFill=1;exitX=1.005;exitY=0.5;exitPerimeter=0;entryX=0;entryY=0.5;lucidId=KXAh2Hc~4Bh_;entryDx=0;entryDy=0;" edge="1" parent="WIyWlLk6GJQsqaUBKTNV-1" target="3fczbsxRmoHJEnEu84x_-146">
          <mxGeometry width="100" height="100" relative="1" as="geometry">
            <Array as="points" />
            <mxPoint x="907" y="-569.79" as="sourcePoint" />
            <mxPoint x="1022" y="-570.79" as="targetPoint" />
          </mxGeometry>
        </mxCell>
        <mxCell id="3fczbsxRmoHJEnEu84x_-146" value="Input&amp;nbsp;&lt;div&gt;name to be searched&lt;/div&gt;" style="html=1;overflow=block;blockSpacing=1;whiteSpace=wrap;shape=parallelogram;perimeter=parallelogramPerimeter;anchorPointDirection=0;fontSize=16.7;spacing=3.8;rounded=1;absoluteArcSize=1;arcSize=9;strokeWidth=NaN;lucidId=1UBheFtj..Al;" vertex="1" parent="WIyWlLk6GJQsqaUBKTNV-1">
          <mxGeometry x="1015" y="-620.5" width="130" height="101" as="geometry" />
        </mxCell>
        <mxCell id="3fczbsxRmoHJEnEu84x_-147" value="&amp;nbsp; &amp;nbsp;for&lt;div&gt;(i=0; i&amp;lt;=contacts in phoneBook; i++)&lt;/div&gt;" style="html=1;overflow=block;blockSpacing=1;whiteSpace=wrap;fontSize=13;spacing=9;rounded=1;absoluteArcSize=1;arcSize=9;strokeWidth=NaN;lucidId=BWBh74a_5Ecy;" vertex="1" parent="WIyWlLk6GJQsqaUBKTNV-1">
          <mxGeometry x="1221.5" y="-610.5" width="152" height="81" as="geometry" />
        </mxCell>
        <mxCell id="3fczbsxRmoHJEnEu84x_-148" value="" style="html=1;jettySize=18;whiteSpace=wrap;fontSize=13;strokeColor=#3a414a;strokeOpacity=100;strokeWidth=0.8;rounded=1;arcSize=12;edgeStyle=orthogonalEdgeStyle;startArrow=none;endArrow=block;endFill=1;exitX=1;exitY=0.5;lucidId=KXAh2Hc~4Bh_;exitDx=0;exitDy=0;" edge="1" parent="WIyWlLk6GJQsqaUBKTNV-1" source="3fczbsxRmoHJEnEu84x_-146">
          <mxGeometry width="100" height="100" relative="1" as="geometry">
            <Array as="points" />
            <mxPoint x="1185" y="-570.5" as="sourcePoint" />
            <mxPoint x="1219" y="-571" as="targetPoint" />
          </mxGeometry>
        </mxCell>
        <mxCell id="3fczbsxRmoHJEnEu84x_-150" value="&lt;font style=&quot;font-size: 12px;&quot;&gt;if&lt;/font&gt;&lt;div style=&quot;font-size: 12px;&quot;&gt;&lt;font style=&quot;font-size: 12px;&quot;&gt;(nameInserted==nameInPhoneBook)&amp;nbsp;&lt;/font&gt;&lt;div style=&quot;&quot;&gt;&lt;font style=&quot;font-size: 12px;&quot;&gt;then&lt;/font&gt;&lt;/div&gt;&lt;/div&gt;" style="html=1;overflow=block;blockSpacing=1;whiteSpace=wrap;rhombus;fontSize=13;spacing=3.8;rounded=1;absoluteArcSize=1;arcSize=9;strokeWidth=NaN;lucidId=eRAhl8F1_OAq;" vertex="1" parent="WIyWlLk6GJQsqaUBKTNV-1">
          <mxGeometry x="1475" y="-630" width="240" height="120" as="geometry" />
        </mxCell>
        <mxCell id="3fczbsxRmoHJEnEu84x_-151" value="" style="html=1;jettySize=18;whiteSpace=wrap;fontSize=13;strokeColor=#3a414a;strokeOpacity=100;strokeWidth=0.8;rounded=1;arcSize=12;edgeStyle=orthogonalEdgeStyle;startArrow=none;endArrow=block;endFill=1;lucidId=KXAh2Hc~4Bh_;entryX=0;entryY=0.5;entryDx=0;entryDy=0;exitX=1;exitY=0.5;exitDx=0;exitDy=0;" edge="1" parent="WIyWlLk6GJQsqaUBKTNV-1" source="3fczbsxRmoHJEnEu84x_-147" target="3fczbsxRmoHJEnEu84x_-150">
          <mxGeometry width="100" height="100" relative="1" as="geometry">
            <Array as="points" />
            <mxPoint x="1405" y="-570" as="sourcePoint" />
            <mxPoint x="1452" y="-570.77" as="targetPoint" />
          </mxGeometry>
        </mxCell>
        <mxCell id="3fczbsxRmoHJEnEu84x_-152" value="" style="html=1;jettySize=18;whiteSpace=wrap;fontSize=13;strokeColor=#008a0e;strokeOpacity=100;strokeWidth=0.8;rounded=1;arcSize=12;edgeStyle=orthogonalEdgeStyle;startArrow=none;endArrow=block;endFill=1;lucidId=eRAhjgdg4Sg9;exitX=1;exitY=0.5;exitDx=0;exitDy=0;entryX=0;entryY=0.5;entryDx=0;entryDy=0;" edge="1" parent="WIyWlLk6GJQsqaUBKTNV-1" source="3fczbsxRmoHJEnEu84x_-150" target="3fczbsxRmoHJEnEu84x_-154">
          <mxGeometry width="100" height="100" relative="1" as="geometry">
            <Array as="points" />
            <mxPoint x="1755" y="-570" as="sourcePoint" />
            <mxPoint x="1855" y="-571" as="targetPoint" />
          </mxGeometry>
        </mxCell>
        <mxCell id="3fczbsxRmoHJEnEu84x_-153" value="Yes" style="text;html=1;resizable=0;labelBackgroundColor=default;align=center;verticalAlign=middle;fontColor=#3a414a;fontSize=13;" vertex="1" parent="3fczbsxRmoHJEnEu84x_-152">
          <mxGeometry relative="1" as="geometry" />
        </mxCell>
        <mxCell id="3fczbsxRmoHJEnEu84x_-154" value="Display contact details" style="html=1;overflow=block;blockSpacing=1;whiteSpace=wrap;shape=parallelogram;perimeter=parallelogramPerimeter;anchorPointDirection=0;fontSize=13;spacing=3.8;rounded=1;absoluteArcSize=1;arcSize=9;strokeWidth=NaN;lucidId=6RBhGlp7gwiF;" vertex="1" parent="WIyWlLk6GJQsqaUBKTNV-1">
          <mxGeometry x="1865" y="-615.25" width="112" height="90.5" as="geometry" />
        </mxCell>
        <mxCell id="3fczbsxRmoHJEnEu84x_-155" value="" style="html=1;jettySize=18;whiteSpace=wrap;fontSize=13;strokeColor=#e81313;strokeOpacity=100;dashed=1;fixDash=1;strokeWidth=0.8;rounded=1;arcSize=12;edgeStyle=elbowEdgeStyle;startArrow=none;endArrow=block;endFill=1;exitX=0.5;exitY=0.993;exitPerimeter=0;lucidId=eRAhq2rj_irK;elbow=vertical;entryX=0.5;entryY=0;entryDx=0;entryDy=0;" edge="1" parent="WIyWlLk6GJQsqaUBKTNV-1" target="3fczbsxRmoHJEnEu84x_-157">
          <mxGeometry width="100" height="100" relative="1" as="geometry">
            <mxPoint x="1594.38" y="-510" as="sourcePoint" />
            <mxPoint x="1725" y="-420" as="targetPoint" />
          </mxGeometry>
        </mxCell>
        <mxCell id="3fczbsxRmoHJEnEu84x_-156" value="No" style="text;html=1;resizable=0;labelBackgroundColor=default;align=center;verticalAlign=middle;fontColor=#3a414a;fontSize=13;" vertex="1" parent="3fczbsxRmoHJEnEu84x_-155">
          <mxGeometry relative="1" as="geometry" />
        </mxCell>
        <mxCell id="3fczbsxRmoHJEnEu84x_-157" value="Display &quot;Contact not found" style="html=1;overflow=block;blockSpacing=1;whiteSpace=wrap;shape=parallelogram;perimeter=parallelogramPerimeter;anchorPointDirection=0;fontSize=13;spacing=3.8;rounded=1;absoluteArcSize=1;arcSize=9;strokeWidth=NaN;lucidId=6RBhGlp7gwiF;" vertex="1" parent="WIyWlLk6GJQsqaUBKTNV-1">
          <mxGeometry x="1755" y="-458.5" width="120" height="100.5" as="geometry" />
        </mxCell>
        <mxCell id="3fczbsxRmoHJEnEu84x_-158" value="" style="html=1;jettySize=18;whiteSpace=wrap;fontSize=13;strokeColor=#3a414a;strokeOpacity=100;strokeWidth=0.8;rounded=1;arcSize=12;edgeStyle=orthogonalEdgeStyle;startArrow=none;endArrow=block;endFill=1;lucidId=KXAh2Hc~4Bh_;entryX=0;entryY=0.5;entryDx=0;entryDy=0;exitX=1;exitY=0.5;exitDx=0;exitDy=0;" edge="1" parent="WIyWlLk6GJQsqaUBKTNV-1">
          <mxGeometry width="100" height="100" relative="1" as="geometry">
            <Array as="points" />
            <mxPoint x="913" y="-298.62" as="sourcePoint" />
            <mxPoint x="1015" y="-298.62" as="targetPoint" />
          </mxGeometry>
        </mxCell>
        <mxCell id="3fczbsxRmoHJEnEu84x_-159" value="&lt;span style=&quot;font-size: 12px;&quot;&gt;If(phonebook==empty) then&lt;/span&gt;" style="html=1;overflow=block;blockSpacing=1;whiteSpace=wrap;rhombus;fontSize=13;spacing=3.8;rounded=1;absoluteArcSize=1;arcSize=9;strokeWidth=NaN;lucidId=eRAhl8F1_OAq;" vertex="1" parent="WIyWlLk6GJQsqaUBKTNV-1">
          <mxGeometry x="1015" y="-358" width="190" height="120" as="geometry" />
        </mxCell>
        <mxCell id="3fczbsxRmoHJEnEu84x_-160" value="" style="html=1;jettySize=18;whiteSpace=wrap;fontSize=13;strokeColor=#008a0e;strokeOpacity=100;strokeWidth=0.8;rounded=1;arcSize=12;edgeStyle=orthogonalEdgeStyle;startArrow=none;endArrow=block;endFill=1;lucidId=eRAhjgdg4Sg9;exitX=1;exitY=0.5;exitDx=0;exitDy=0;entryX=0;entryY=0.5;entryDx=0;entryDy=0;" edge="1" parent="WIyWlLk6GJQsqaUBKTNV-1" target="3fczbsxRmoHJEnEu84x_-162">
          <mxGeometry width="100" height="100" relative="1" as="geometry">
            <Array as="points" />
            <mxPoint x="1205" y="-298.62" as="sourcePoint" />
            <mxPoint x="1366" y="-298.62" as="targetPoint" />
          </mxGeometry>
        </mxCell>
        <mxCell id="3fczbsxRmoHJEnEu84x_-161" value="Yes" style="text;html=1;resizable=0;labelBackgroundColor=default;align=center;verticalAlign=middle;fontColor=#3a414a;fontSize=13;" vertex="1" parent="3fczbsxRmoHJEnEu84x_-160">
          <mxGeometry relative="1" as="geometry" />
        </mxCell>
        <mxCell id="3fczbsxRmoHJEnEu84x_-162" value="Display &quot;The phoneBook is empty.&quot;" style="html=1;overflow=block;blockSpacing=1;whiteSpace=wrap;shape=parallelogram;perimeter=parallelogramPerimeter;anchorPointDirection=0;fontSize=13;spacing=3.8;rounded=1;absoluteArcSize=1;arcSize=9;strokeWidth=NaN;lucidId=6RBhGlp7gwiF;" vertex="1" parent="WIyWlLk6GJQsqaUBKTNV-1">
          <mxGeometry x="1405" y="-343.25" width="112" height="90.5" as="geometry" />
        </mxCell>
        <mxCell id="3fczbsxRmoHJEnEu84x_-163" value="" style="html=1;jettySize=18;whiteSpace=wrap;fontSize=13;strokeColor=#e81313;strokeOpacity=100;dashed=1;fixDash=1;strokeWidth=0.8;rounded=1;arcSize=12;edgeStyle=elbowEdgeStyle;startArrow=none;endArrow=block;endFill=1;exitX=0.5;exitY=1;lucidId=eRAhq2rj_irK;elbow=vertical;exitDx=0;exitDy=0;entryX=0.609;entryY=-0.031;entryDx=0;entryDy=0;entryPerimeter=0;" edge="1" parent="WIyWlLk6GJQsqaUBKTNV-1" source="3fczbsxRmoHJEnEu84x_-159" target="3fczbsxRmoHJEnEu84x_-165">
          <mxGeometry width="100" height="100" relative="1" as="geometry">
            <mxPoint x="1105" y="-200" as="sourcePoint" />
            <mxPoint x="1215" y="-180" as="targetPoint" />
          </mxGeometry>
        </mxCell>
        <mxCell id="3fczbsxRmoHJEnEu84x_-164" value="No" style="text;html=1;resizable=0;labelBackgroundColor=default;align=center;verticalAlign=middle;fontColor=#3a414a;fontSize=13;" vertex="1" parent="3fczbsxRmoHJEnEu84x_-163">
          <mxGeometry relative="1" as="geometry" />
        </mxCell>
        <mxCell id="3fczbsxRmoHJEnEu84x_-165" value="Display&amp;nbsp;&lt;div&gt;all contacts in phoneBook&lt;/div&gt;" style="html=1;overflow=block;blockSpacing=1;whiteSpace=wrap;shape=parallelogram;perimeter=parallelogramPerimeter;anchorPointDirection=0;fontSize=13;spacing=3.8;rounded=1;absoluteArcSize=1;arcSize=9;strokeWidth=NaN;lucidId=6RBhGlp7gwiF;" vertex="1" parent="WIyWlLk6GJQsqaUBKTNV-1">
          <mxGeometry x="1221.5" y="-190" width="120" height="100.5" as="geometry" />
        </mxCell>
        <mxCell id="3fczbsxRmoHJEnEu84x_-166" value="&lt;font style=&quot;font-size: 13px;&quot;&gt;Enter name to be deleted&lt;/font&gt;" style="html=1;overflow=block;blockSpacing=1;whiteSpace=wrap;shape=parallelogram;perimeter=parallelogramPerimeter;anchorPointDirection=0;fontSize=16.7;spacing=3.8;rounded=1;absoluteArcSize=1;arcSize=9;strokeWidth=NaN;lucidId=1UBheFtj..Al;" vertex="1" parent="WIyWlLk6GJQsqaUBKTNV-1">
          <mxGeometry x="985" y="-20.5" width="130" height="101" as="geometry" />
        </mxCell>
        <mxCell id="3fczbsxRmoHJEnEu84x_-167" value="" style="html=1;jettySize=18;whiteSpace=wrap;fontSize=13;strokeColor=#3a414a;strokeOpacity=100;strokeWidth=0.8;rounded=1;arcSize=12;edgeStyle=orthogonalEdgeStyle;startArrow=none;endArrow=block;endFill=1;lucidId=KXAh2Hc~4Bh_;entryX=0;entryY=0.5;entryDx=0;entryDy=0;exitX=1;exitY=0.5;exitDx=0;exitDy=0;" edge="1" parent="WIyWlLk6GJQsqaUBKTNV-1" target="3fczbsxRmoHJEnEu84x_-166">
          <mxGeometry width="100" height="100" relative="1" as="geometry">
            <Array as="points" />
            <mxPoint x="912" y="29.409999999999968" as="sourcePoint" />
            <mxPoint x="1014" y="29.409999999999968" as="targetPoint" />
          </mxGeometry>
        </mxCell>
        <mxCell id="3fczbsxRmoHJEnEu84x_-169" value="" style="html=1;jettySize=18;whiteSpace=wrap;fontSize=13;strokeColor=#3a414a;strokeOpacity=100;strokeWidth=0.8;rounded=1;arcSize=12;edgeStyle=orthogonalEdgeStyle;startArrow=none;endArrow=block;endFill=1;lucidId=KXAh2Hc~4Bh_;entryX=0;entryY=0.5;entryDx=0;entryDy=0;exitX=1;exitY=0.5;exitDx=0;exitDy=0;" edge="1" parent="WIyWlLk6GJQsqaUBKTNV-1" source="3fczbsxRmoHJEnEu84x_-166" target="3fczbsxRmoHJEnEu84x_-170">
          <mxGeometry width="100" height="100" relative="1" as="geometry">
            <Array as="points" />
            <mxPoint x="1129" y="29.43999999999994" as="sourcePoint" />
            <mxPoint x="1165" y="29.99999999999909" as="targetPoint" />
          </mxGeometry>
        </mxCell>
        <mxCell id="3fczbsxRmoHJEnEu84x_-170" value="for&lt;div&gt;(i=0; i&amp;lt;=contacts in phoneBook; i++)&lt;/div&gt;" style="html=1;overflow=block;blockSpacing=1;whiteSpace=wrap;fontSize=13;spacing=9;rounded=1;absoluteArcSize=1;arcSize=9;strokeWidth=NaN;lucidId=BWBh74a_5Ecy;" vertex="1" parent="WIyWlLk6GJQsqaUBKTNV-1">
          <mxGeometry x="1185" y="-10.5" width="152" height="81" as="geometry" />
        </mxCell>
        <mxCell id="3fczbsxRmoHJEnEu84x_-171" value="" style="html=1;jettySize=18;whiteSpace=wrap;fontSize=13;strokeColor=#3a414a;strokeOpacity=100;strokeWidth=0.8;rounded=1;arcSize=12;edgeStyle=orthogonalEdgeStyle;startArrow=none;endArrow=block;endFill=1;lucidId=KXAh2Hc~4Bh_;exitX=1;exitY=0.5;exitDx=0;exitDy=0;entryX=0;entryY=0.5;entryDx=0;entryDy=0;" edge="1" parent="WIyWlLk6GJQsqaUBKTNV-1" source="3fczbsxRmoHJEnEu84x_-170" target="3fczbsxRmoHJEnEu84x_-175">
          <mxGeometry width="100" height="100" relative="1" as="geometry">
            <Array as="points" />
            <mxPoint x="1385" y="30" as="sourcePoint" />
            <mxPoint x="1435" y="30" as="targetPoint" />
          </mxGeometry>
        </mxCell>
        <mxCell id="3fczbsxRmoHJEnEu84x_-175" value="&lt;span style=&quot;font-size: 10px;&quot;&gt;if&lt;br&gt;(nameInsterted==nameInPhoneBook) then&lt;/span&gt;" style="html=1;overflow=block;blockSpacing=1;whiteSpace=wrap;rhombus;fontSize=13;spacing=3.8;rounded=1;absoluteArcSize=1;arcSize=9;strokeWidth=NaN;lucidId=eRAhl8F1_OAq;" vertex="1" parent="WIyWlLk6GJQsqaUBKTNV-1">
          <mxGeometry x="1445" y="-30" width="190" height="120" as="geometry" />
        </mxCell>
        <mxCell id="3fczbsxRmoHJEnEu84x_-176" value="" style="html=1;jettySize=18;whiteSpace=wrap;fontSize=13;strokeColor=#008a0e;strokeOpacity=100;strokeWidth=0.8;rounded=1;arcSize=12;edgeStyle=orthogonalEdgeStyle;startArrow=none;endArrow=block;endFill=1;lucidId=eRAhjgdg4Sg9;exitX=1;exitY=0.5;exitDx=0;exitDy=0;" edge="1" parent="WIyWlLk6GJQsqaUBKTNV-1">
          <mxGeometry width="100" height="100" relative="1" as="geometry">
            <Array as="points" />
            <mxPoint x="1635" y="29.379999999999995" as="sourcePoint" />
            <mxPoint x="1755" y="30" as="targetPoint" />
          </mxGeometry>
        </mxCell>
        <mxCell id="3fczbsxRmoHJEnEu84x_-177" value="Yes" style="text;html=1;resizable=0;labelBackgroundColor=default;align=center;verticalAlign=middle;fontColor=#3a414a;fontSize=13;" vertex="1" parent="3fczbsxRmoHJEnEu84x_-176">
          <mxGeometry relative="1" as="geometry" />
        </mxCell>
        <mxCell id="3fczbsxRmoHJEnEu84x_-178" value="Display&amp;nbsp;&lt;div&gt;&quot;Contact has been deleted.&quot;&lt;/div&gt;" style="html=1;overflow=block;blockSpacing=1;whiteSpace=wrap;shape=parallelogram;perimeter=parallelogramPerimeter;anchorPointDirection=0;fontSize=13;spacing=3.8;rounded=1;absoluteArcSize=1;arcSize=9;strokeWidth=NaN;lucidId=6RBhGlp7gwiF;" vertex="1" parent="WIyWlLk6GJQsqaUBKTNV-1">
          <mxGeometry x="1985" y="-15.25" width="112" height="90.5" as="geometry" />
        </mxCell>
        <mxCell id="3fczbsxRmoHJEnEu84x_-179" value="" style="html=1;jettySize=18;whiteSpace=wrap;fontSize=13;strokeColor=#e81313;strokeOpacity=100;dashed=1;fixDash=1;strokeWidth=0.8;rounded=1;arcSize=12;edgeStyle=elbowEdgeStyle;startArrow=none;endArrow=block;endFill=1;exitX=0.5;exitY=1;lucidId=eRAhq2rj_irK;elbow=vertical;exitDx=0;exitDy=0;entryX=0.609;entryY=-0.031;entryDx=0;entryDy=0;entryPerimeter=0;" edge="1" parent="WIyWlLk6GJQsqaUBKTNV-1" source="3fczbsxRmoHJEnEu84x_-175" target="3fczbsxRmoHJEnEu84x_-181">
          <mxGeometry width="100" height="100" relative="1" as="geometry">
            <mxPoint x="1535" y="128" as="sourcePoint" />
            <mxPoint x="1645" y="148" as="targetPoint" />
          </mxGeometry>
        </mxCell>
        <mxCell id="3fczbsxRmoHJEnEu84x_-180" value="No" style="text;html=1;resizable=0;labelBackgroundColor=default;align=center;verticalAlign=middle;fontColor=#3a414a;fontSize=13;" vertex="1" parent="3fczbsxRmoHJEnEu84x_-179">
          <mxGeometry relative="1" as="geometry" />
        </mxCell>
        <mxCell id="3fczbsxRmoHJEnEu84x_-181" value="Display&lt;div&gt;&amp;nbsp;&quot;Contact not Found&quot;&lt;/div&gt;" style="html=1;overflow=block;blockSpacing=1;whiteSpace=wrap;shape=parallelogram;perimeter=parallelogramPerimeter;anchorPointDirection=0;fontSize=13;spacing=3.8;rounded=1;absoluteArcSize=1;arcSize=9;strokeWidth=NaN;lucidId=6RBhGlp7gwiF;" vertex="1" parent="WIyWlLk6GJQsqaUBKTNV-1">
          <mxGeometry x="1651.5" y="138" width="120" height="100.5" as="geometry" />
        </mxCell>
        <mxCell id="3fczbsxRmoHJEnEu84x_-182" value="Delete nameInserted from phoneBook" style="html=1;overflow=block;blockSpacing=1;whiteSpace=wrap;fontSize=13;spacing=9;rounded=1;absoluteArcSize=1;arcSize=9;strokeWidth=NaN;lucidId=BWBh74a_5Ecy;" vertex="1" parent="WIyWlLk6GJQsqaUBKTNV-1">
          <mxGeometry x="1755" y="-10" width="152" height="81" as="geometry" />
        </mxCell>
        <mxCell id="3fczbsxRmoHJEnEu84x_-183" value="" style="html=1;jettySize=18;whiteSpace=wrap;fontSize=13;strokeColor=#3a414a;strokeOpacity=100;strokeWidth=0.8;rounded=1;arcSize=12;edgeStyle=orthogonalEdgeStyle;startArrow=none;endArrow=block;endFill=1;lucidId=KXAh2Hc~4Bh_;exitX=1;exitY=0.5;exitDx=0;exitDy=0;" edge="1" parent="WIyWlLk6GJQsqaUBKTNV-1" source="3fczbsxRmoHJEnEu84x_-182" target="3fczbsxRmoHJEnEu84x_-178">
          <mxGeometry width="100" height="100" relative="1" as="geometry">
            <Array as="points" />
            <mxPoint x="1925" y="29.33000000000004" as="sourcePoint" />
            <mxPoint x="2026" y="29.33000000000004" as="targetPoint" />
          </mxGeometry>
        </mxCell>
        <mxCell id="3fczbsxRmoHJEnEu84x_-184" value="&lt;span style=&quot;font-size: 13px;&quot;&gt;Enter name to update&lt;/span&gt;" style="html=1;overflow=block;blockSpacing=1;whiteSpace=wrap;shape=parallelogram;perimeter=parallelogramPerimeter;anchorPointDirection=0;fontSize=16.7;spacing=3.8;rounded=1;absoluteArcSize=1;arcSize=9;strokeWidth=NaN;lucidId=1UBheFtj..Al;" vertex="1" parent="WIyWlLk6GJQsqaUBKTNV-1">
          <mxGeometry x="980" y="420" width="130" height="101" as="geometry" />
        </mxCell>
        <mxCell id="3fczbsxRmoHJEnEu84x_-185" value="" style="html=1;jettySize=18;whiteSpace=wrap;fontSize=13;strokeColor=#3a414a;strokeOpacity=100;strokeWidth=0.8;rounded=1;arcSize=12;edgeStyle=orthogonalEdgeStyle;startArrow=none;endArrow=block;endFill=1;lucidId=KXAh2Hc~4Bh_;entryX=0;entryY=0.5;entryDx=0;entryDy=0;exitX=1;exitY=0.5;exitDx=0;exitDy=0;" edge="1" parent="WIyWlLk6GJQsqaUBKTNV-1" source="3fczbsxRmoHJEnEu84x_-144" target="3fczbsxRmoHJEnEu84x_-184">
          <mxGeometry width="100" height="100" relative="1" as="geometry">
            <Array as="points" />
            <mxPoint x="940" y="469.96000000000004" as="sourcePoint" />
            <mxPoint x="1026" y="470.54999999999995" as="targetPoint" />
          </mxGeometry>
        </mxCell>
        <mxCell id="3fczbsxRmoHJEnEu84x_-188" value="" style="html=1;jettySize=18;whiteSpace=wrap;fontSize=13;strokeColor=#3a414a;strokeOpacity=100;strokeWidth=0.8;rounded=1;arcSize=12;edgeStyle=orthogonalEdgeStyle;startArrow=none;endArrow=block;endFill=1;lucidId=KXAh2Hc~4Bh_;entryX=0;entryY=0.5;entryDx=0;entryDy=0;exitX=1;exitY=0.5;exitDx=0;exitDy=0;" edge="1" parent="WIyWlLk6GJQsqaUBKTNV-1" source="3fczbsxRmoHJEnEu84x_-184" target="3fczbsxRmoHJEnEu84x_-189">
          <mxGeometry width="100" height="100" relative="1" as="geometry">
            <Array as="points" />
            <mxPoint x="1332" y="370" as="sourcePoint" />
            <mxPoint x="1395" y="369.9999999999991" as="targetPoint" />
          </mxGeometry>
        </mxCell>
        <mxCell id="3fczbsxRmoHJEnEu84x_-189" value="for&lt;div&gt;(i=0; i&amp;lt;=contacts in phoneBook; i++)&lt;/div&gt;" style="html=1;overflow=block;blockSpacing=1;whiteSpace=wrap;fontSize=13;spacing=9;rounded=1;absoluteArcSize=1;arcSize=9;strokeWidth=NaN;lucidId=BWBh74a_5Ecy;" vertex="1" parent="WIyWlLk6GJQsqaUBKTNV-1">
          <mxGeometry x="1221.5" y="430" width="152" height="81" as="geometry" />
        </mxCell>
        <mxCell id="3fczbsxRmoHJEnEu84x_-190" value="" style="html=1;jettySize=18;whiteSpace=wrap;fontSize=13;strokeColor=#3a414a;strokeOpacity=100;strokeWidth=0.8;rounded=1;arcSize=12;edgeStyle=orthogonalEdgeStyle;startArrow=none;endArrow=block;endFill=1;lucidId=KXAh2Hc~4Bh_;exitX=1;exitY=0.5;exitDx=0;exitDy=0;entryX=0;entryY=0.5;entryDx=0;entryDy=0;" edge="1" parent="WIyWlLk6GJQsqaUBKTNV-1" source="3fczbsxRmoHJEnEu84x_-189" target="3fczbsxRmoHJEnEu84x_-191">
          <mxGeometry width="100" height="100" relative="1" as="geometry">
            <Array as="points" />
            <mxPoint x="1421.5" y="470.5" as="sourcePoint" />
            <mxPoint x="1471.5" y="470.5" as="targetPoint" />
          </mxGeometry>
        </mxCell>
        <mxCell id="3fczbsxRmoHJEnEu84x_-191" value="&lt;span style=&quot;font-size: 10px;&quot;&gt;if&lt;/span&gt;&lt;div&gt;&lt;span style=&quot;font-size: 10px;&quot;&gt;(nameInserted==nameInPhoneBook) then&lt;/span&gt;&lt;/div&gt;" style="html=1;overflow=block;blockSpacing=1;whiteSpace=wrap;rhombus;fontSize=13;spacing=3.8;rounded=1;absoluteArcSize=1;arcSize=9;strokeWidth=NaN;lucidId=eRAhl8F1_OAq;" vertex="1" parent="WIyWlLk6GJQsqaUBKTNV-1">
          <mxGeometry x="1481.5" y="410.5" width="190" height="120" as="geometry" />
        </mxCell>
        <mxCell id="3fczbsxRmoHJEnEu84x_-192" value="" style="html=1;jettySize=18;whiteSpace=wrap;fontSize=13;strokeColor=#008a0e;strokeOpacity=100;strokeWidth=0.8;rounded=1;arcSize=12;edgeStyle=orthogonalEdgeStyle;startArrow=none;endArrow=block;endFill=1;lucidId=eRAhjgdg4Sg9;exitX=1;exitY=0.5;exitDx=0;exitDy=0;" edge="1" parent="WIyWlLk6GJQsqaUBKTNV-1">
          <mxGeometry width="100" height="100" relative="1" as="geometry">
            <Array as="points" />
            <mxPoint x="1671.5" y="469.8800000000001" as="sourcePoint" />
            <mxPoint x="1791.5" y="470.5" as="targetPoint" />
          </mxGeometry>
        </mxCell>
        <mxCell id="3fczbsxRmoHJEnEu84x_-193" value="Yes" style="text;html=1;resizable=0;labelBackgroundColor=default;align=center;verticalAlign=middle;fontColor=#3a414a;fontSize=13;" vertex="1" parent="3fczbsxRmoHJEnEu84x_-192">
          <mxGeometry relative="1" as="geometry" />
        </mxCell>
        <mxCell id="3fczbsxRmoHJEnEu84x_-194" value="&lt;div&gt;Display&amp;nbsp;&lt;/div&gt;&lt;div&gt;&quot;Contact&amp;nbsp;&lt;/div&gt;&lt;div&gt;updated successfully.&quot;&lt;br&gt;&lt;/div&gt;" style="html=1;overflow=block;blockSpacing=1;whiteSpace=wrap;shape=parallelogram;perimeter=parallelogramPerimeter;anchorPointDirection=0;fontSize=13;spacing=3.8;rounded=1;absoluteArcSize=1;arcSize=9;strokeWidth=NaN;lucidId=6RBhGlp7gwiF;" vertex="1" parent="WIyWlLk6GJQsqaUBKTNV-1">
          <mxGeometry x="2021.5" y="425.25" width="112" height="90.5" as="geometry" />
        </mxCell>
        <mxCell id="3fczbsxRmoHJEnEu84x_-195" value="" style="html=1;jettySize=18;whiteSpace=wrap;fontSize=13;strokeColor=#e81313;strokeOpacity=100;dashed=1;fixDash=1;strokeWidth=0.8;rounded=1;arcSize=12;edgeStyle=elbowEdgeStyle;startArrow=none;endArrow=block;endFill=1;exitX=0.5;exitY=1;lucidId=eRAhq2rj_irK;elbow=vertical;exitDx=0;exitDy=0;entryX=0.609;entryY=-0.031;entryDx=0;entryDy=0;entryPerimeter=0;" edge="1" parent="WIyWlLk6GJQsqaUBKTNV-1" source="3fczbsxRmoHJEnEu84x_-191" target="3fczbsxRmoHJEnEu84x_-197">
          <mxGeometry width="100" height="100" relative="1" as="geometry">
            <mxPoint x="1571.5" y="568.5" as="sourcePoint" />
            <mxPoint x="1681.5" y="588.5" as="targetPoint" />
          </mxGeometry>
        </mxCell>
        <mxCell id="3fczbsxRmoHJEnEu84x_-196" value="No" style="text;html=1;resizable=0;labelBackgroundColor=default;align=center;verticalAlign=middle;fontColor=#3a414a;fontSize=13;" vertex="1" parent="3fczbsxRmoHJEnEu84x_-195">
          <mxGeometry relative="1" as="geometry" />
        </mxCell>
        <mxCell id="3fczbsxRmoHJEnEu84x_-197" value="Display&amp;nbsp;&lt;div&gt;&quot;Contact not Found&quot;&lt;br&gt;&lt;/div&gt;" style="html=1;overflow=block;blockSpacing=1;whiteSpace=wrap;shape=parallelogram;perimeter=parallelogramPerimeter;anchorPointDirection=0;fontSize=13;spacing=3.8;rounded=1;absoluteArcSize=1;arcSize=9;strokeWidth=NaN;lucidId=6RBhGlp7gwiF;" vertex="1" parent="WIyWlLk6GJQsqaUBKTNV-1">
          <mxGeometry x="1688" y="578.5" width="120" height="100.5" as="geometry" />
        </mxCell>
        <mxCell id="3fczbsxRmoHJEnEu84x_-198" value="Update contact" style="html=1;overflow=block;blockSpacing=1;whiteSpace=wrap;fontSize=13;spacing=9;rounded=1;absoluteArcSize=1;arcSize=9;strokeWidth=NaN;lucidId=BWBh74a_5Ecy;" vertex="1" parent="WIyWlLk6GJQsqaUBKTNV-1">
          <mxGeometry x="1791.5" y="430.5" width="152" height="81" as="geometry" />
        </mxCell>
        <mxCell id="3fczbsxRmoHJEnEu84x_-199" value="" style="html=1;jettySize=18;whiteSpace=wrap;fontSize=13;strokeColor=#3a414a;strokeOpacity=100;strokeWidth=0.8;rounded=1;arcSize=12;edgeStyle=orthogonalEdgeStyle;startArrow=none;endArrow=block;endFill=1;lucidId=KXAh2Hc~4Bh_;exitX=1;exitY=0.5;exitDx=0;exitDy=0;" edge="1" parent="WIyWlLk6GJQsqaUBKTNV-1" source="3fczbsxRmoHJEnEu84x_-198" target="3fczbsxRmoHJEnEu84x_-194">
          <mxGeometry width="100" height="100" relative="1" as="geometry">
            <Array as="points" />
            <mxPoint x="1961.5" y="469.8299999999999" as="sourcePoint" />
            <mxPoint x="2062.5" y="469.8299999999999" as="targetPoint" />
          </mxGeometry>
        </mxCell>
        <mxCell id="3fczbsxRmoHJEnEu84x_-201" value="&lt;span style=&quot;font-size: 12px;&quot;&gt;if&lt;/span&gt;&lt;div&gt;&lt;span style=&quot;font-size: 12px;&quot;&gt;(phoneBook==empty)&amp;nbsp;&lt;/span&gt;&lt;div&gt;&lt;span style=&quot;font-size: 12px;&quot;&gt;then&lt;/span&gt;&lt;br&gt;&lt;/div&gt;&lt;/div&gt;" style="html=1;overflow=block;blockSpacing=1;whiteSpace=wrap;rhombus;fontSize=13;spacing=3.8;rounded=1;absoluteArcSize=1;arcSize=9;strokeWidth=NaN;lucidId=eRAhl8F1_OAq;" vertex="1" parent="WIyWlLk6GJQsqaUBKTNV-1">
          <mxGeometry x="733" y="681.5" width="240" height="120" as="geometry" />
        </mxCell>
        <mxCell id="3fczbsxRmoHJEnEu84x_-202" value="" style="html=1;jettySize=18;whiteSpace=wrap;fontSize=13;strokeColor=#008a0e;strokeOpacity=100;strokeWidth=0.8;rounded=1;arcSize=12;edgeStyle=orthogonalEdgeStyle;startArrow=none;endArrow=block;endFill=1;lucidId=eRAhjgdg4Sg9;exitX=1;exitY=0.5;exitDx=0;exitDy=0;entryX=0;entryY=0.5;entryDx=0;entryDy=0;" edge="1" parent="WIyWlLk6GJQsqaUBKTNV-1" source="3fczbsxRmoHJEnEu84x_-201" target="3fczbsxRmoHJEnEu84x_-204">
          <mxGeometry width="100" height="100" relative="1" as="geometry">
            <Array as="points" />
            <mxPoint x="1013" y="741.5" as="sourcePoint" />
            <mxPoint x="1113" y="740.5" as="targetPoint" />
          </mxGeometry>
        </mxCell>
        <mxCell id="3fczbsxRmoHJEnEu84x_-203" value="Yes" style="text;html=1;resizable=0;labelBackgroundColor=default;align=center;verticalAlign=middle;fontColor=#3a414a;fontSize=13;" vertex="1" parent="3fczbsxRmoHJEnEu84x_-202">
          <mxGeometry relative="1" as="geometry" />
        </mxCell>
        <mxCell id="3fczbsxRmoHJEnEu84x_-204" value="Display &quot;Phonebook is empty&quot;" style="html=1;overflow=block;blockSpacing=1;whiteSpace=wrap;shape=parallelogram;perimeter=parallelogramPerimeter;anchorPointDirection=0;fontSize=13;spacing=3.8;rounded=1;absoluteArcSize=1;arcSize=9;strokeWidth=NaN;lucidId=6RBhGlp7gwiF;" vertex="1" parent="WIyWlLk6GJQsqaUBKTNV-1">
          <mxGeometry x="1123" y="696.25" width="112" height="90.5" as="geometry" />
        </mxCell>
        <mxCell id="3fczbsxRmoHJEnEu84x_-205" value="" style="html=1;jettySize=18;whiteSpace=wrap;fontSize=13;strokeColor=#e81313;strokeOpacity=100;dashed=1;fixDash=1;strokeWidth=0.8;rounded=1;arcSize=12;edgeStyle=elbowEdgeStyle;startArrow=none;endArrow=block;endFill=1;exitX=0.5;exitY=0.993;exitPerimeter=0;lucidId=eRAhq2rj_irK;elbow=vertical;entryX=0.5;entryY=0;entryDx=0;entryDy=0;" edge="1" parent="WIyWlLk6GJQsqaUBKTNV-1" target="3fczbsxRmoHJEnEu84x_-80">
          <mxGeometry width="100" height="100" relative="1" as="geometry">
            <mxPoint x="852.3800000000001" y="801.5" as="sourcePoint" />
            <mxPoint x="853" y="950" as="targetPoint" />
          </mxGeometry>
        </mxCell>
        <mxCell id="3fczbsxRmoHJEnEu84x_-206" value="No" style="text;html=1;resizable=0;labelBackgroundColor=default;align=center;verticalAlign=middle;fontColor=#3a414a;fontSize=13;" vertex="1" parent="3fczbsxRmoHJEnEu84x_-205">
          <mxGeometry relative="1" as="geometry" />
        </mxCell>
        <mxCell id="3fczbsxRmoHJEnEu84x_-208" value="" style="html=1;jettySize=18;whiteSpace=wrap;fontSize=13;strokeColor=#008a0e;strokeOpacity=100;strokeWidth=0.8;rounded=1;arcSize=12;edgeStyle=orthogonalEdgeStyle;startArrow=none;endArrow=block;endFill=1;exitX=1;exitY=0.5;lucidId=eRAhgrudIFUt;entryX=0;entryY=0.5;entryDx=0;entryDy=0;exitDx=0;exitDy=0;" edge="1" parent="WIyWlLk6GJQsqaUBKTNV-1" source="3fczbsxRmoHJEnEu84x_-79" target="3fczbsxRmoHJEnEu84x_-201">
          <mxGeometry width="100" height="100" relative="1" as="geometry">
            <Array as="points" />
            <mxPoint x="605" y="740.6700000000001" as="sourcePoint" />
            <mxPoint x="785" y="740.6700000000001" as="targetPoint" />
          </mxGeometry>
        </mxCell>
        <mxCell id="3fczbsxRmoHJEnEu84x_-209" value="Yes" style="text;html=1;resizable=0;labelBackgroundColor=default;align=center;verticalAlign=middle;fontColor=#3a414a;fontSize=13;" vertex="1" parent="3fczbsxRmoHJEnEu84x_-208">
          <mxGeometry relative="1" as="geometry" />
        </mxCell>
        <mxCell id="3fczbsxRmoHJEnEu84x_-210" value="" style="html=1;jettySize=18;whiteSpace=wrap;fontSize=13;strokeColor=#3a414a;strokeOpacity=100;strokeWidth=0.8;rounded=1;arcSize=12;startArrow=none;endArrow=block;endFill=1;lucidId=eRAhbJlBrYZg;elbow=vertical;entryX=1;entryY=0.5;entryDx=0;entryDy=0;" edge="1" parent="WIyWlLk6GJQsqaUBKTNV-1" target="3fczbsxRmoHJEnEu84x_-82">
          <mxGeometry width="100" height="100" relative="1" as="geometry">
            <Array as="points" />
            <mxPoint x="2310" y="1241" as="sourcePoint" />
            <mxPoint x="2030" y="1251" as="targetPoint" />
          </mxGeometry>
        </mxCell>
        <mxCell id="3fczbsxRmoHJEnEu84x_-211" value="" style="html=1;jettySize=18;whiteSpace=wrap;fontSize=13;strokeColor=#3a414a;strokeOpacity=100;strokeWidth=0.8;rounded=1;arcSize=12;startArrow=none;endArrow=none;endFill=0;lucidId=eRAhbJlBrYZg;elbow=vertical;" edge="1" parent="WIyWlLk6GJQsqaUBKTNV-1">
          <mxGeometry width="100" height="100" relative="1" as="geometry">
            <Array as="points">
              <mxPoint x="2310" y="470.5" />
            </Array>
            <mxPoint x="2310" y="-840" as="sourcePoint" />
            <mxPoint x="2310" y="1240" as="targetPoint" />
          </mxGeometry>
        </mxCell>
        <mxCell id="3fczbsxRmoHJEnEu84x_-212" value="" style="html=1;jettySize=18;whiteSpace=wrap;fontSize=13;strokeOpacity=100;strokeWidth=0.8;rounded=1;arcSize=12;edgeStyle=orthogonalEdgeStyle;startArrow=none;endArrow=classic;endFill=1;lucidId=UWBhq2eKNjBZ;exitX=1;exitY=0.5;exitDx=0;exitDy=0;" edge="1" parent="WIyWlLk6GJQsqaUBKTNV-1" source="3fczbsxRmoHJEnEu84x_-137">
          <mxGeometry width="100" height="100" relative="1" as="geometry">
            <Array as="points" />
            <mxPoint x="2130" y="-840.59" as="sourcePoint" />
            <mxPoint x="2310" y="-840" as="targetPoint" />
          </mxGeometry>
        </mxCell>
        <mxCell id="3fczbsxRmoHJEnEu84x_-213" value="" style="html=1;jettySize=18;whiteSpace=wrap;fontSize=13;strokeOpacity=100;strokeWidth=0.8;rounded=1;arcSize=12;edgeStyle=orthogonalEdgeStyle;startArrow=none;endArrow=classic;endFill=1;lucidId=UWBhq2eKNjBZ;exitX=1;exitY=0.5;exitDx=0;exitDy=0;" edge="1" parent="WIyWlLk6GJQsqaUBKTNV-1" source="3fczbsxRmoHJEnEu84x_-154">
          <mxGeometry width="100" height="100" relative="1" as="geometry">
            <Array as="points" />
            <mxPoint x="2021.5" y="-560" as="sourcePoint" />
            <mxPoint x="2310" y="-570" as="targetPoint" />
          </mxGeometry>
        </mxCell>
        <mxCell id="3fczbsxRmoHJEnEu84x_-214" value="" style="html=1;jettySize=18;whiteSpace=wrap;fontSize=13;strokeOpacity=100;strokeWidth=0.8;rounded=1;arcSize=12;edgeStyle=orthogonalEdgeStyle;startArrow=none;endArrow=classic;endFill=1;lucidId=UWBhq2eKNjBZ;exitX=1;exitY=0.5;exitDx=0;exitDy=0;" edge="1" parent="WIyWlLk6GJQsqaUBKTNV-1" source="3fczbsxRmoHJEnEu84x_-162">
          <mxGeometry width="100" height="100" relative="1" as="geometry">
            <Array as="points" />
            <mxPoint x="1763" y="-280" as="sourcePoint" />
            <mxPoint x="2310" y="-298" as="targetPoint" />
          </mxGeometry>
        </mxCell>
        <mxCell id="3fczbsxRmoHJEnEu84x_-215" value="" style="html=1;jettySize=18;whiteSpace=wrap;fontSize=13;strokeOpacity=100;strokeWidth=0.8;rounded=1;arcSize=12;edgeStyle=orthogonalEdgeStyle;startArrow=none;endArrow=classic;endFill=1;lucidId=UWBhq2eKNjBZ;exitX=1;exitY=0.5;exitDx=0;exitDy=0;" edge="1" parent="WIyWlLk6GJQsqaUBKTNV-1" source="3fczbsxRmoHJEnEu84x_-178">
          <mxGeometry width="100" height="100" relative="1" as="geometry">
            <Array as="points" />
            <mxPoint x="2130" y="29.909999999999968" as="sourcePoint" />
            <mxPoint x="2310" y="30" as="targetPoint" />
          </mxGeometry>
        </mxCell>
        <mxCell id="3fczbsxRmoHJEnEu84x_-216" value="" style="html=1;jettySize=18;whiteSpace=wrap;fontSize=13;strokeOpacity=100;strokeWidth=0.8;rounded=1;arcSize=12;edgeStyle=orthogonalEdgeStyle;startArrow=none;endArrow=classic;endFill=1;lucidId=UWBhq2eKNjBZ;exitX=1;exitY=0.5;exitDx=0;exitDy=0;" edge="1" parent="WIyWlLk6GJQsqaUBKTNV-1" source="3fczbsxRmoHJEnEu84x_-194">
          <mxGeometry width="100" height="100" relative="1" as="geometry">
            <Array as="points" />
            <mxPoint x="2190" y="469.91" as="sourcePoint" />
            <mxPoint x="2310" y="470" as="targetPoint" />
          </mxGeometry>
        </mxCell>
        <mxCell id="3fczbsxRmoHJEnEu84x_-217" value="" style="html=1;jettySize=18;whiteSpace=wrap;fontSize=13;strokeOpacity=100;strokeWidth=0.8;rounded=1;arcSize=12;edgeStyle=orthogonalEdgeStyle;startArrow=none;endArrow=classic;endFill=1;lucidId=UWBhq2eKNjBZ;exitX=1;exitY=0.5;exitDx=0;exitDy=0;" edge="1" parent="WIyWlLk6GJQsqaUBKTNV-1" source="3fczbsxRmoHJEnEu84x_-197">
          <mxGeometry width="100" height="100" relative="1" as="geometry">
            <Array as="points" />
            <mxPoint x="1897" y="641" as="sourcePoint" />
            <mxPoint x="2310" y="629" as="targetPoint" />
          </mxGeometry>
        </mxCell>
        <mxCell id="3fczbsxRmoHJEnEu84x_-218" value="" style="html=1;jettySize=18;whiteSpace=wrap;fontSize=13;strokeOpacity=100;strokeWidth=0.8;rounded=1;arcSize=12;edgeStyle=orthogonalEdgeStyle;startArrow=none;endArrow=classic;endFill=1;lucidId=UWBhq2eKNjBZ;exitX=1;exitY=0.5;exitDx=0;exitDy=0;" edge="1" parent="WIyWlLk6GJQsqaUBKTNV-1" source="3fczbsxRmoHJEnEu84x_-181">
          <mxGeometry width="100" height="100" relative="1" as="geometry">
            <Array as="points" />
            <mxPoint x="1791.5" y="200" as="sourcePoint" />
            <mxPoint x="2310" y="190" as="targetPoint" />
          </mxGeometry>
        </mxCell>
        <mxCell id="3fczbsxRmoHJEnEu84x_-219" value="" style="html=1;jettySize=18;whiteSpace=wrap;fontSize=13;strokeOpacity=100;strokeWidth=0.8;rounded=1;arcSize=12;edgeStyle=orthogonalEdgeStyle;startArrow=none;endArrow=classic;endFill=1;lucidId=UWBhq2eKNjBZ;" edge="1" parent="WIyWlLk6GJQsqaUBKTNV-1" source="3fczbsxRmoHJEnEu84x_-165">
          <mxGeometry width="100" height="100" relative="1" as="geometry">
            <Array as="points" />
            <mxPoint x="1671.5" y="-120" as="sourcePoint" />
            <mxPoint x="2310" y="-140" as="targetPoint" />
          </mxGeometry>
        </mxCell>
        <mxCell id="3fczbsxRmoHJEnEu84x_-220" value="" style="html=1;jettySize=18;whiteSpace=wrap;fontSize=13;strokeOpacity=100;strokeWidth=0.8;rounded=1;arcSize=12;edgeStyle=orthogonalEdgeStyle;startArrow=none;endArrow=classic;endFill=1;lucidId=UWBhq2eKNjBZ;exitX=1;exitY=0.5;exitDx=0;exitDy=0;" edge="1" parent="WIyWlLk6GJQsqaUBKTNV-1" source="3fczbsxRmoHJEnEu84x_-157">
          <mxGeometry width="100" height="100" relative="1" as="geometry">
            <Array as="points" />
            <mxPoint x="1930" y="-400" as="sourcePoint" />
            <mxPoint x="2310" y="-408" as="targetPoint" />
          </mxGeometry>
        </mxCell>
        <mxCell id="3fczbsxRmoHJEnEu84x_-221" value="" style="html=1;jettySize=18;whiteSpace=wrap;fontSize=13;strokeOpacity=100;strokeWidth=0.8;rounded=1;arcSize=12;edgeStyle=orthogonalEdgeStyle;startArrow=none;endArrow=classic;endFill=1;lucidId=UWBhq2eKNjBZ;exitX=1;exitY=0.5;exitDx=0;exitDy=0;" edge="1" parent="WIyWlLk6GJQsqaUBKTNV-1" source="3fczbsxRmoHJEnEu84x_-204">
          <mxGeometry width="100" height="100" relative="1" as="geometry">
            <Array as="points" />
            <mxPoint x="1280" y="750" as="sourcePoint" />
            <mxPoint x="2310" y="741" as="targetPoint" />
          </mxGeometry>
        </mxCell>
        <mxCell id="3fczbsxRmoHJEnEu84x_-222" value="" style="html=1;jettySize=18;whiteSpace=wrap;fontSize=13;strokeColor=#008a0e;strokeOpacity=100;strokeWidth=0.8;rounded=1;arcSize=12;edgeStyle=orthogonalEdgeStyle;startArrow=none;endArrow=block;endFill=1;exitX=0;exitY=0.5;lucidId=eRAhgrudIFUt;exitDx=0;exitDy=0;entryX=0;entryY=0.5;entryDx=0;entryDy=0;" edge="1" parent="WIyWlLk6GJQsqaUBKTNV-1" source="3fczbsxRmoHJEnEu84x_-82" target="3fczbsxRmoHJEnEu84x_-129">
          <mxGeometry width="100" height="100" relative="1" as="geometry">
            <Array as="points">
              <mxPoint x="260" y="1241" />
              <mxPoint x="260" y="-1117" />
            </Array>
            <mxPoint x="360" y="1130" as="sourcePoint" />
            <mxPoint x="260" y="-1120" as="targetPoint" />
          </mxGeometry>
        </mxCell>
        <mxCell id="3fczbsxRmoHJEnEu84x_-223" value="Yes" style="text;html=1;resizable=0;labelBackgroundColor=default;align=center;verticalAlign=middle;fontColor=#3a414a;fontSize=13;" vertex="1" parent="3fczbsxRmoHJEnEu84x_-222">
          <mxGeometry relative="1" as="geometry" />
        </mxCell>
        <mxCell id="3fczbsxRmoHJEnEu84x_-224" value="Start" style="ellipse;whiteSpace=wrap;html=1;" vertex="1" parent="WIyWlLk6GJQsqaUBKTNV-1">
          <mxGeometry x="446" y="-3270" width="120" height="80" as="geometry" />
        </mxCell>
        <mxCell id="3fczbsxRmoHJEnEu84x_-225" value="End" style="ellipse;whiteSpace=wrap;html=1;" vertex="1" parent="WIyWlLk6GJQsqaUBKTNV-1">
          <mxGeometry x="436" y="1460" width="120" height="80" as="geometry" />
        </mxCell>
      </root>
    </mxGraphModel>
  </diagram>
</mxfile>
